<svg width="24" height="24" viewBox="0 0 24 24" fill="none" xmlns="http://www.w3.org/2000/svg">
    <g id="vuesax/bulk/document-upload">
    <g id="document-upload">
    <path id="Vector" opacity="0.4" d="M17.61 10.69H20.5C20.7739 10.69 21 10.9161 21 11.19V16.43C21 18.0923 20.4239 19.3476 19.5277 20.1893C18.6266 21.0356 17.3629 21.5 15.93 21.5H8.07C6.63711 21.5 5.37343 21.0356 4.4723 20.1893C3.57612 19.3476 3 18.0923 3 16.43V7.57C3 5.90766 3.57612 4.65241 4.4723 3.81071C5.37343 2.96436 6.63711 2.5 8.07 2.5H12.31C12.5839 2.5 12.81 2.72614 12.81 3V5.89C12.81 8.53614 14.9639 10.69 17.61 10.69Z" fill="white" stroke="white"/>
    <path id="Vector_2" d="M15.8001 2.21048C15.3901 1.80048 14.6801 2.08048 14.6801 2.65048V6.14048C14.6801 7.60048 15.9201 8.81048 17.4301 8.81048C18.3801 8.82048 19.7001 8.82048 20.8301 8.82048C21.4001 8.82048 21.7001 8.15048 21.3001 7.75048C19.8601 6.30048 17.2801 3.69048 15.8001 2.21048Z" fill="white"/>
    <path id="Vector_3" d="M11.5299 12.47L9.52994 10.47C9.51994 10.46 9.50994 10.46 9.50994 10.45C9.44994 10.39 9.36994 10.34 9.28994 10.3C9.27994 10.3 9.27994 10.3 9.26994 10.3C9.18994 10.27 9.10994 10.26 9.02994 10.25C8.99994 10.25 8.97994 10.25 8.94994 10.25C8.88994 10.25 8.81994 10.27 8.75994 10.29C8.72994 10.3 8.70994 10.31 8.68994 10.32C8.60994 10.36 8.52994 10.4 8.46994 10.47L6.46994 12.47C6.17994 12.76 6.17994 13.24 6.46994 13.53C6.75994 13.82 7.23994 13.82 7.52994 13.53L8.24994 12.81V17C8.24994 17.41 8.58994 17.75 8.99994 17.75C9.40994 17.75 9.74994 17.41 9.74994 17V12.81L10.4699 13.53C10.6199 13.68 10.8099 13.75 10.9999 13.75C11.1899 13.75 11.3799 13.68 11.5299 13.53C11.8199 13.24 11.8199 12.76 11.5299 12.47Z" fill="white"/>
    </g>
    </g>
</svg>
